<?xml version="1.0" encoding="UTF-8"?>
<svg id="_레이어_2" data-name="레이어 2" xmlns="http://www.w3.org/2000/svg" viewBox="0 0 55.51 46.69">
  <defs>
    <style>
      .cls-1 {
        fill: #fff;
      }

      .cls-2 {
        fill: #1e1e1e;
      }
    </style>
  </defs>
  <g id="_레이어_1-2" data-name="레이어 1">
    <path class="cls-1" d="m46.74,0H8.77C3.92,0,0,3.94,0,8.8v20.87c0,4.86,3.92,8.8,8.77,8.8h13.08l4.46,7.27s.05.09.15.21c.26.45.74.75,1.3.75s1.03-.3,1.29-.74c.11-.13.15-.22.15-.22l4.46-7.27h13.08c4.84,0,8.77-3.94,8.77-8.8V8.8c0-4.86-3.93-8.8-8.77-8.8Z"/>
    <g>
      <path class="cls-2" d="m12.33,15.29s-1.52,0-2.89,1.34v-5.39h-3.4v14.16h3.43v-1.11s.81,1.46,2.85,1.46c0,0,4.79-.18,4.79-5.28,0,0-.18-5.18-4.79-5.18Zm-.75,7.47c-1.21,0-2.18-.98-2.18-2.18s.98-2.18,2.18-2.18,2.18.98,2.18,2.18-.98,2.18-2.18,2.18Z"/>
      <path class="cls-2" d="m18.21,10.93v3.28s1.55-.07,1.55,2.82v8.38h3.28v-9.16s.14-5.32-4.83-5.32Z"/>
      <path class="cls-2" d="m31.04,15.34s-5.61,0-5.61,5.24c0,0-.18,5.17,5.61,5.17,0,0,5.74,0,5.74-5.17,0,0,.19-5.24-5.74-5.24Zm0,7.43c-1.21,0-2.18-.98-2.18-2.18s.98-2.18,2.18-2.18,2.18.98,2.18,2.18-.98,2.18-2.18,2.18Z"/>
      <path class="cls-2" d="m46.16,15.68v.95s-.98-1.29-2.85-1.29c0,0-4.81-.2-4.81,5.21,0,0-.05,5.04,4.68,5.04,0,0,1.93.08,2.98-1.29v.79s.24,2.48-2.17,2.48h-.82v3.01h1.32s4.97.05,4.97-5.31v-9.59h-3.3Zm-2.03,7.08c-1.21,0-2.18-.98-2.18-2.18s.98-2.18,2.18-2.18,2.18.98,2.18,2.18-.98,2.18-2.18,2.18Z"/>
    </g>
  </g>
</svg>