<?xml version="1.0" encoding="UTF-8"?>
<svg id="_레이어_2" data-name="레이어 2" xmlns="http://www.w3.org/2000/svg" viewBox="0 0 9.18 7.63">
  <g id="_레이어_1-2" data-name="레이어 1">
    <path d="m9.06,4.19s.02-.03.03-.04c0-.02.02-.03.02-.05,0,0,0-.02.01-.03,0,0,0,0,0-.01,0-.02.01-.03.02-.05,0-.01,0-.03.01-.04,0-.02,0-.03,0-.05,0-.02,0-.03,0-.04,0-.02,0-.04,0-.05,0-.01,0-.03,0-.04,0-.02,0-.04,0-.06,0-.01,0-.03,0-.04,0-.02,0-.04-.01-.05,0-.01,0-.03-.01-.04,0,0,0-.01,0-.02,0-.01-.01-.02-.02-.03,0-.01-.01-.03-.02-.04,0-.02-.02-.03-.03-.05,0-.01-.02-.02-.03-.04-.01-.02-.02-.03-.04-.04,0,0-.01-.01-.02-.02L5.84.2c-.26-.26-.69-.26-.95,0-.26.26-.26.69,0,.95l2,2H.67c-.23,0-.44.12-.56.3C.04,3.54,0,3.67,0,3.81c0,.19.08.35.2.47.12.12.29.2.47.2h0s6.22,0,6.22,0l-2,2c-.26.26-.26.69,0,.95.13.13.3.2.47.2s.34-.07.47-.2l3.14-3.14s.01-.01.02-.02c.01-.01.02-.03.04-.04,0-.01.02-.03.03-.04Z"/>
  </g>
</svg>