<?xml version="1.0" encoding="UTF-8"?>
<svg id="_레이어_2" data-name="레이어 2" xmlns="http://www.w3.org/2000/svg" viewBox="0 0 177.8 40.28">
  <defs>
    <style>
      .cls-1 {
        fill: #fff;
      }

      .cls-2 {
        fill: #88cc2f;
      }

      .cls-3 {
        fill: #31b4dd;
      }

      .cls-4 {
        fill: #f7552f;
      }

      .cls-5 {
        fill: #ffc400;
      }
    </style>
  </defs>
  <g id="_레이어_1-2" data-name="레이어 1">
    <g>
      <path class="cls-4" d="m96.4,4.92C95.2,2.62,92.8.02,87.7.02h0c-3.3,0-5.6,1.4-7,2.8V.92c0-.2-.2-.3-.3-.3h-4.5c-.2,0-.3.2-.3.3v38c0,.2.2.3.3.3h4.9c.2,0,.3-.2.3-.3v-12.9c1.5,1.3,3.6,2.5,6.7,2.5h0c5.1,0,7.5-2.6,8.7-4.9,1.2-2.4,1.3-4.9,1.3-5.4v-7.7c-.1-.6-.2-3.2-1.4-5.6Zm-4.4,13.5c0,1.2-.8,5.2-5.5,5.2s-5.5-4.1-5.5-5.2v-8.2c0-1.2.8-5.2,5.5-5.2s5.5,4.1,5.5,5.2v8.2Z"/>
      <path class="cls-1" d="m22.8,10.42c0-.5.1-3,1.4-5.4C25.5,2.72,28.3.12,33.9.12h0c5.6,0,8.4,2.6,9.7,4.9,1.4,2.4,1.4,4.9,1.4,5.4v7.7c0,.5-.1,3-1.4,5.4-1.3,2.3-4,4.9-9.7,4.9h0c-5.6,0-8.4-2.6-9.7-4.9-1.4-2.4-1.4-4.9-1.4-5.4v-7.7Zm5.6,7.9c0,1.2.8,5.2,5.5,5.2s5.6-4.1,5.6-5.2v-8.2c0-1.2-.8-5.2-5.6-5.2s-5.5,4.1-5.5,5.2v8.2Z"/>
      <path class="cls-1" d="m71.1.92c0-.2-.1-.3-.3-.3h-4.9c-.2,0-.3.2-.3.3v17.4c0,1.2-.8,5.2-5.5,5.2s-5.6-4.1-5.6-5.2V.92c0-.2-.2-.3-.3-.3h-4.9c-.2,0-.3.2-.3.3v17.2c0,.5,0,3,1.3,5.4,1.2,2.3,3.6,4.9,8.7,4.9h0c1.7,0,3.1-.3,4.2-.9,1.1-.5,2.1-1.2,2.8-1.9v1.9c0,.2.2.3.3.3h4.5c.2,0,.3-.2.3-.3V.92Z"/>
      <path class="cls-5" d="m122.1,10.12c0-2.2-1.1-7.3-6-9.3-4.8-2-11.1.2-13.1,1l-.4.2c-.2.1-.3.3-.2.5l1.4,4c.1.2.2.3.4.2.1,0,.1-.1.2-.1,1.9-1,6.8-2.6,9.8-1.2,3,1.4,2.7,4.5,2.7,4.9v.8c-1.4-1-3.4-2-6.3-2.1h0c-5.1,0-7.5,2.5-8.7,4.6-1.2,2.3-1.3,4.7-1.3,5.1h0c0,.5.1,2.9,1.3,5.1,1.2,2.2,3.6,4.6,8.7,4.6h0c3,0,5-1.1,6.5-2.2v1.3c0,.2.2.3.3.3h4.3c.2,0,.3-.2.3-.3V10.22q.1,0,.1-.1Zm-5.2,8.7c0,1.1-.8,4.9-5.4,4.9s-5.4-3.8-5.4-4.9v-.4c0-1.1.8-4.9,5.4-4.9s5.4,3.8,5.4,4.9v.4Z"/>
      <path class="cls-3" d="m177.4.22c-2.9-.1-4.7,1.1-5.9,2.4-1.6-1.4-4.1-2.5-7.9-2.5h0c-5.6,0-8.4,2.5-9.7,4.7-1.4,2.3-1.4,4.7-1.4,5.2v.3c0,.5.1,2.9,1.4,5.2.6,1,1.5,2,2.8,2.9-2.1,1.2-4,3.4-4,7.3v2.1c0,.2.2.4.3.4h16.1c1.9,0,2.9,1.3,3.2,2.5.3,1.5-.2,3.5-2.8,4.9l-.2.1c-.2.1-.2.3-.1.5l2.2,3.9c.1.2.3.2.5.1,0,0,1.1-.7,1.5-.9s.7-.5,1-.8c2.8-2.6,3.3-6.1,2.7-8.9-.8-3.8-4-6-8-6h-11.1c.6-3.4,4.5-3.3,5-3.3h.6c5.6,0,8.4-2.5,9.7-4.7,1.4-2.3,1.4-4.7,1.4-5.2v-.5c0-.4,0-2.2-.9-4.1.7-.5,1.9-1,3.6-.9h0c.2,0,.4-.2.4-.3V.72h0c0-.3-.2-.5-.4-.5Zm-8.3,10c0,1.1-.8,4.9-5.5,5-4.8,0-5.5-3.9-5.5-5v-.3c0-1.1.8-4.9,5.5-5,4.8,0,5.5,3.9,5.5,5v.3Z"/>
      <path class="cls-1" d="m21,22.62l-4.3-2.2c-.2-.1-.4,0-.5.2v.1h0c-.7,1.4-2.1,2.9-5,3-4.8,0-5.5-4.1-5.5-5.2v-8.2c0-1.2.8-5.2,5.5-5.2,2.9,0,4.4,1.6,5,3,.1.1.2.3.4.3h.2l4.2-2.2c.2-.1.2-.3.1-.5h0c-.1-.2-.2-.3-.2-.5C19.6,2.92,16.9.32,11.2.32h0C5.6.32,2.8,2.92,1.5,5.22.1,7.32,0,9.92,0,10.42v7.7c0,.5.1,3,1.4,5.4,1.3,2.3,4,4.9,9.7,4.9h.1c5.6,0,8.4-2.6,9.7-4.9l.3-.5c0-.1-.1-.3-.2-.4Z"/>
      <path class="cls-2" d="m147.4,4.92c-1.2-2.3-3.7-4.9-8.7-4.9h0c-3.3,0-5.5,1.4-7,2.8V.92c0-.2-.2-.3-.3-.3h-4.5c-.2,0-.3.2-.3.3v26.7c0,.2.2.3.3.3h4.9c.2,0,.3-.2.3-.3V9.92c.1-1.4,1.1-4.9,5.5-5,4.8,0,5.6,4.1,5.6,5.2v17.5c0,.2.2.3.3.3h4.9c.2,0,.3-.2.3-.3V10.42c0-.5,0-3.1-1.3-5.5Z"/>
    </g>
  </g>
</svg>