<svg xmlns="http://www.w3.org/2000/svg" viewBox="0 0 177.8 40.28"><defs><style>.cls-1{fill:#fff;}</style></defs><title>Asset 1</title><g id="Layer_2" data-name="Layer 2"><g id="레이어_1" data-name="레이어 1"><path class="cls-1" d="M96.4,4.92C95.2,2.62,92.8,0,87.7,0h0a9.69,9.69,0,0,0-7,2.8V.92a.32.32,0,0,0-.3-.3H75.9a.32.32,0,0,0-.3.3v38a.32.32,0,0,0,.3.3h4.9a.32.32,0,0,0,.3-.3V26a9.82,9.82,0,0,0,6.7,2.5h0c5.1,0,7.5-2.6,8.7-4.9a13.23,13.23,0,0,0,1.3-5.4v-7.7A16.54,16.54,0,0,0,96.4,4.92ZM92,18.42a5.51,5.51,0,0,1-11,0v-8.2a5.51,5.51,0,0,1,11,0Z"/><path class="cls-1" d="M22.8,10.42A12.32,12.32,0,0,1,24.2,5c1.3-2.3,4.1-4.9,9.7-4.9h0c5.6,0,8.4,2.6,9.7,4.9a11,11,0,0,1,1.4,5.4v7.7a12.32,12.32,0,0,1-1.4,5.4c-1.3,2.3-4,4.9-9.7,4.9h0c-5.6,0-8.4-2.6-9.7-4.9a11,11,0,0,1-1.4-5.4Zm5.6,7.9a5.21,5.21,0,0,0,5.5,5.2,5.29,5.29,0,0,0,5.6-5.2v-8.2a5.24,5.24,0,0,0-5.6-5.2,5.19,5.19,0,0,0-5.5,5.2Z"/><path class="cls-1" d="M71.1.92a.27.27,0,0,0-.3-.3H65.9a.32.32,0,0,0-.3.3v17.4a5.21,5.21,0,0,1-5.5,5.2,5.29,5.29,0,0,1-5.6-5.2V.92a.32.32,0,0,0-.3-.3H49.3a.32.32,0,0,0-.3.3v17.2a11.68,11.68,0,0,0,1.3,5.4c1.2,2.3,3.6,4.9,8.7,4.9h0a8.71,8.71,0,0,0,4.2-.9,9.83,9.83,0,0,0,2.8-1.9v1.9a.32.32,0,0,0,.3.3h4.5a.32.32,0,0,0,.3-.3Z"/><path class="cls-1" d="M122.1,10.12c0-2.2-1.1-7.3-6-9.3S105,1,103,1.82l-.4.2a.37.37,0,0,0-.2.5l1.4,4c.1.2.2.3.4.2s.1-.1.2-.1c1.9-1,6.8-2.6,9.8-1.2a4.87,4.87,0,0,1,2.7,4.9v.8A11.14,11.14,0,0,0,110.6,9h0c-5.1,0-7.5,2.5-8.7,4.6a12.23,12.23,0,0,0-1.3,5.1h0a11.64,11.64,0,0,0,1.3,5.1c1.2,2.2,3.6,4.6,8.7,4.6h0a10.46,10.46,0,0,0,6.5-2.2v1.3a.32.32,0,0,0,.3.3h4.3a.32.32,0,0,0,.3-.3V10.22C122.1,10.22,122.1,10.22,122.1,10.12Zm-5.2,8.7a5.43,5.43,0,0,1-10.8,0v-.4a5.43,5.43,0,0,1,10.8,0Z"/><path class="cls-1" d="M177.4.22a7.25,7.25,0,0,0-5.9,2.4c-1.6-1.4-4.1-2.5-7.9-2.5h0c-5.6,0-8.4,2.5-9.7,4.7a10.2,10.2,0,0,0-1.4,5.2v.3a11.43,11.43,0,0,0,1.4,5.2,9.51,9.51,0,0,0,2.8,2.9,7.85,7.85,0,0,0-4,7.3v2.1a.45.45,0,0,0,.3.4h16.1a3.19,3.19,0,0,1,3.2,2.5c.3,1.5-.2,3.5-2.8,4.9l-.2.1c-.2.1-.2.3-.1.5l2.2,3.9c.1.2.3.2.5.1,0,0,1.1-.7,1.5-.9a3.92,3.92,0,0,0,1-.8,9.3,9.3,0,0,0,2.7-8.9c-.8-3.8-4-6-8-6H158c.6-3.4,4.5-3.3,5-3.3h.6c5.6,0,8.4-2.5,9.7-4.7a10.2,10.2,0,0,0,1.4-5.2v-.5a9.74,9.74,0,0,0-.9-4.1,5.57,5.57,0,0,1,3.6-.9h0a.45.45,0,0,0,.4-.3V.72h0A.46.46,0,0,0,177.4.22Zm-8.3,10c0,1.1-.8,4.9-5.5,5s-5.5-3.9-5.5-5v-.3c0-1.1.8-4.9,5.5-5s5.5,3.9,5.5,5Z"/><path class="cls-1" d="M21,22.62l-4.3-2.2a.37.37,0,0,0-.5.2v.1h0a5.36,5.36,0,0,1-5,3,5.19,5.19,0,0,1-5.5-5.2v-8.2a5.21,5.21,0,0,1,5.5-5.2,5.1,5.1,0,0,1,5,3c.1.1.2.3.4.3h.2L21,6.22c.2-.1.2-.3.1-.5h0c-.1-.2-.2-.3-.2-.5-1.3-2.3-4-4.9-9.7-4.9h0c-5.6,0-8.4,2.6-9.7,4.9A10.25,10.25,0,0,0,0,10.42v7.7a12.32,12.32,0,0,0,1.4,5.4c1.3,2.3,4,4.9,9.7,4.9h.1c5.6,0,8.4-2.6,9.7-4.9l.3-.5A.76.76,0,0,0,21,22.62Z"/><path class="cls-1" d="M147.4,4.92c-1.2-2.3-3.7-4.9-8.7-4.9h0a9.88,9.88,0,0,0-7,2.8V.92a.32.32,0,0,0-.3-.3h-4.5a.32.32,0,0,0-.3.3v26.7a.32.32,0,0,0,.3.3h4.9a.32.32,0,0,0,.3-.3V9.92a5.57,5.57,0,0,1,11.1.2v17.5a.32.32,0,0,0,.3.3h4.9a.32.32,0,0,0,.3-.3V10.42A12,12,0,0,0,147.4,4.92Z"/></g></g></svg>