<?xml version="1.0" encoding="UTF-8"?>
<svg id="_레이어_2" data-name="레이어 2" xmlns="http://www.w3.org/2000/svg" viewBox="0 0 99.43 99.43">
  <g id="_迹_1" data-name="卵迹_1">
    <g>
      <path d="m39.8,74.55c.81.81,1.86,1.21,2.92,1.21s2.11-.4,2.92-1.21l21.92-21.92c.77-.77,1.21-1.82,1.21-2.92s-.43-2.14-1.21-2.92l-21.92-21.92c-1.61-1.61-4.22-1.61-5.83,0-1.61,1.61-1.61,4.22,0,5.83l19.01,19.01-19.01,19c-1.61,1.61-1.61,4.22,0,5.83Z"/>
      <path d="m49.71,99.43c27.41,0,49.71-22.3,49.71-49.71S77.13,0,49.71,0C22.3,0,0,22.3,0,49.71s22.3,49.71,49.71,49.71Zm0-91.18c22.86,0,41.47,18.6,41.47,41.47s-18.6,41.47-41.47,41.47c-22.86,0-41.47-18.6-41.47-41.47S26.85,8.25,49.71,8.25Z"/>
    </g>
  </g>
</svg>