<?xml version="1.0" encoding="UTF-8"?>
<svg id="_레이어_2" data-name="레이어 2" xmlns="http://www.w3.org/2000/svg" viewBox="0 0 54.35 55.55">
  <defs>
    <style>
      .cls-1 {
        fill: #fff;
      }
    </style>
  </defs>
  <g id="_레이어_1-2" data-name="레이어 1">
    <path class="cls-1" d="m6.31,36.82c7.42,7.42,18.93,8.29,27.32,2.63l2.64,2.64s0,0,0,0l9.76,9.76,3.26,3.26c.73.73,2.14.51,3.14-.49l1-1c1-1,1.22-2.41.49-3.14l-1.04-1.04s0,0,0,0l-2.22-2.22-12.22-12.22c6.75-8.46,6.22-20.87-1.62-28.7-8.41-8.41-22.1-8.41-30.51,0-8.41,8.41-8.41,22.1,0,30.51Zm27.41-2.96c-6.78,6.78-17.82,6.78-24.6,0-6.78-6.78-6.78-17.82,0-24.6,6.78-6.78,17.82-6.78,24.6,0,6.78,6.78,6.78,17.82,0,24.6Z"/>
  </g>
</svg>