<svg xmlns="http://www.w3.org/2000/svg" viewBox="0 0 60.12 60.17"><defs><style>.cls-1{fill:#fff;}</style></defs><title>Asset 3</title><g id="Layer_2" data-name="Layer 2"><g id="레이어_1" data-name="레이어 1"><path class="cls-1" d="M18.05,60.17A6,6,0,1,1,22.3,49.91a6,6,0,0,1-4.25,10.26Zm30.09,0a6,6,0,1,1,4.25-1.76A5.81,5.81,0,0,1,48.14,60.17ZM15.49,12l7.23,15.05H43.78l8.27-15ZM12.64,6H57a2.88,2.88,0,0,1,2.64,1.54,3,3,0,0,1,.07,3.12L49,29.94a6,6,0,0,1-2.22,2.33,5.84,5.84,0,0,1-3,.83H21.36l-3.31,6H54.16v6H18.05a5.57,5.57,0,0,1-5.11-3,5.67,5.67,0,0,1-.15-5.91l4.06-7.37L6,6H0V0H9.78ZM22.72,27.08h0Z"/></g></g></svg>