<?xml version="1.0" encoding="UTF-8"?>
<svg id="_레이어_2" data-name="레이어 2" xmlns="http://www.w3.org/2000/svg" viewBox="0 0 18.55 17.67">
  <g id="_레이어_1-2" data-name="레이어 1">
    <path d="m6.13,14.03l3.15-1.9,3.15,1.93-.83-3.6,2.78-2.4-3.65-.33-1.45-3.4-1.45,3.38-3.65.33,2.78,2.43-.83,3.58Zm-2.76,3.02l1.29-5.57c.04-.18-.02-.37-.16-.49L.17,7.24c-.34-.29-.16-.84.29-.88l5.71-.5c.19-.02.35-.13.42-.31L8.81.31c.17-.41.75-.41.93,0l2.22,5.25c.07.17.23.29.42.31l5.71.5c.44.04.62.59.29.88l-4.32,3.75c-.14.12-.2.31-.16.49l1.29,5.57c.1.43-.37.77-.75.54l-4.9-2.95c-.16-.1-.36-.1-.52,0l-4.9,2.95c-.38.23-.85-.11-.75-.54Z"/>
  </g>
</svg>