<?xml version="1.0" encoding="UTF-8"?>
<svg id="_레이어_2" data-name="레이어 2" xmlns="http://www.w3.org/2000/svg" viewBox="0 0 18.56 17.68">
  <g id="_레이어_1-2" data-name="레이어 1">
    <path d="m9.52,12.29l1.89,1.16c.38.23.85-.11.75-.54l-.49-2.15c-.04-.18.02-.37.16-.49l1.65-1.43c.33-.29.16-.84-.28-.88l-2.17-.19c-.18-.02-.34-.13-.42-.3l-1.33-3.12v7.52c0,.17.09.34.24.43Zm-6.15,4.77l1.29-5.58c.04-.18-.02-.37-.16-.49L.17,7.24c-.33-.29-.16-.84.29-.88l5.72-.5c.19-.02.35-.13.42-.3L8.82.31c.17-.41.75-.41.92,0l2.22,5.25c.07.17.23.29.42.3l5.72.5c.44.04.62.59.29.88l-4.33,3.75c-.14.12-.2.31-.16.49l1.29,5.58c.1.43-.37.77-.75.54l-4.9-2.96c-.16-.1-.36-.1-.52,0l-4.9,2.96c-.38.23-.85-.11-.75-.54Z"/>
  </g>
</svg>